<?xml version="1.0" encoding="utf-8"?>
<!-- Generator: Adobe Illustrator 27.4.0, SVG Export Plug-In . SVG Version: 6.00 Build 0)  -->
<svg version="1.1" id="图层_1" xmlns="http://www.w3.org/2000/svg" xmlns:xlink="http://www.w3.org/1999/xlink" x="0px" y="0px"
	 viewBox="0 0 128 128" style="enable-background:new 0 0 128 128;" xml:space="preserve">
<path d="M76.2,91.9c3.2,2.4,6.4,4.7,9.6,7.1c-0.8,0.9-1.5,1.7-2.3,2.6c-3.5-2.5-6.9-4.9-10.3-7.3c-9.6,6.5-20,8.6-31.3,5.8
	c-9.3-2.3-16.5-7.7-21.7-15.8c-10.7-16.5-7.1-38,8.3-50.2c14.4-11.4,36.3-10,49,3C91.5,51.4,93.5,75,76.2,91.9z M51.3,29.7
	c-18.9,0-33.5,14.9-33.5,34.2c0,19.1,14.8,34,33.5,34.1c19,0,33.8-15.8,33.5-34.9C84.5,44.8,69.9,29.5,51.3,29.7z"/>
<path d="M113.9,99.4c-1.1,0.3-2.3,0.6-3.5,0.9c0-24,0-48,0-72.1c1.1-0.3,2.2-0.6,3.5-1C113.9,51.4,113.9,75.4,113.9,99.4z"/>
<path d="M54.8,94.7c-1.8,0.3-3.5,0.6-5.3,0.9c0-0.9,0-1.7,0-2.5c0.1-7.7,0.2-15.3,0.3-23c0-0.5-0.2-1-0.4-1.4
	c-0.5,0.2-1,0.2-1.4,0.5c-7,4.1-13.9,8.3-20.9,12.5c-1.1-1.3-2.2-2.5-3.4-3.9c0.5-0.3,0.8-0.5,1.2-0.7c6.8-3.8,13.7-7.6,20.5-11.5
	c0.5-0.3,0.8-0.8,1.2-1.2c-0.4-0.4-0.7-0.8-1.1-1.1c-6.5-3.7-13-7.4-19.5-11.1c-0.4-0.3-0.9-0.5-1.4-0.8c0.6-1.6,1.1-3.1,1.6-4.8
	c4.7,2.8,9.3,5.5,13.9,8.3c2.7,1.6,5.3,3.2,8,4.7c1.3,0.8,1.7,0.6,1.6-1c-0.1-7.5-0.2-15-0.4-22.4c0-1.2,0.3-1.7,1.5-1.9
	c1.3-0.2,2.5-0.6,3.9-1c0,2.1,0,4.1,0,6.1c-0.1,6.4-0.2,12.8-0.3,19.2c0,0.5,0.2,1,0.3,1.4c0.5-0.1,1-0.2,1.4-0.4
	c6.4-3.8,12.8-7.6,19.1-11.5c0.4-0.2,0.8-0.5,1.2-0.7c1.2,1.2,2.4,2.4,3.7,3.7c-3.2,1.8-6.3,3.5-9.5,5.3c-4.3,2.4-8.5,4.7-12.8,7.1
	c-0.4,0.2-1.1,0.8-1,1c0.1,0.4,0.6,0.9,1,1.1c6.6,3.6,13.2,7.1,19.9,10.7c0.3,0.2,0.7,0.4,1.1,0.6c-0.4,1.6-0.8,3.2-1.2,5
	c-2.8-1.6-5.5-3.2-8.2-4.8c-4.5-2.6-8.9-5.2-13.4-7.9c-1.4-0.8-1.7-0.7-1.7,1c0.1,7.7,0.2,15.3,0.3,23
	C54.8,93.6,54.8,94.1,54.8,94.7z"/>
</svg>
