<?xml version="1.0" encoding="utf-8"?>
<!-- Generator: Adobe Illustrator 27.4.0, SVG Export Plug-In . SVG Version: 6.00 Build 0)  -->
<svg version="1.1" id="图层_1" xmlns="http://www.w3.org/2000/svg" xmlns:xlink="http://www.w3.org/1999/xlink" x="0px" y="0px"
	 viewBox="0 0 128 128" style="enable-background:new 0 0 128 128;" xml:space="preserve">
<g>
	<path d="M110.5,28.2v72.1c1.2-0.3,2.3-0.6,3.5-0.9V27.2C112.7,27.6,111.6,27.9,110.5,28.2z"/>
	<path d="M77.5,37.1c-12.6-12.9-34.6-14.4-49-3c-15.4,12.3-19,33.8-8.3,50.2c5.2,8,12.4,13.4,21.7,15.8c11.3,2.8,21.7,0.8,31.3-5.8
		c3.4,2.4,6.9,4.8,10.3,7.3c0.8-0.9,1.5-1.7,2.3-2.6c-3.3-2.4-6.4-4.7-9.6-7.1C93.5,75,91.5,51.4,77.5,37.1z M51.4,97.9
		c-18.8,0-33.5-15-33.5-34.1c0-19.3,14.6-34.1,33.5-34.2C69.9,29.5,84.5,44.8,84.8,63C85.2,82.2,70.3,98,51.4,97.9z"/>
	<path d="M77.9,76.2c0.3,0.2,0.7,0.4,1.1,0.6c-0.4,1.6-0.8,3.2-1.2,5c-2.8-1.6-5.5-3.2-8.2-4.8c-4.5-2.6-8.9-5.2-13.4-7.9
		c-1.4-0.8-1.7-0.7-1.7,1c0.1,7.7,0.2,15.3,0.3,23c0,0.5,0,1,0,1.7c-1.8,0.3-3.5,0.6-5.3,0.9c0-0.9,0-1.7,0-2.5
		c0.1-7.6,0.2-15.3,0.3-23c0-0.5-0.2-1-0.3-1.4c-0.5,0.1-1,0.2-1.4,0.5c-7,4.1-13.9,8.3-20.9,12.5c-1.1-1.2-2.2-2.5-3.3-3.9
		c0.5-0.3,0.8-0.5,1.2-0.8c6.8-3.8,13.7-7.6,20.5-11.5c0.5-0.3,0.8-0.8,1.2-1.2c-0.4-0.4-0.7-0.8-1.1-1.1c-6.5-3.7-13-7.4-19.5-11.1
		c-0.5-0.3-0.9-0.5-1.4-0.8c0.5-1.6,1.1-3.1,1.7-4.8c4.7,2.8,9.3,5.5,13.9,8.3c2.7,1.6,5.3,3.2,8,4.7c1.3,0.8,1.7,0.6,1.7-1
		c-0.1-7.5-0.2-15-0.4-22.4c0-1.2,0.3-1.7,1.5-2c1.3-0.2,2.5-0.6,3.9-1c0,2.1,0,4.1,0,6.1c-0.1,6.4-0.2,12.8-0.3,19.2
		c0,0.5,0.2,1,0.3,1.4c0.5-0.1,1-0.2,1.4-0.4c6.4-3.8,12.8-7.6,19.1-11.5c0.4-0.2,0.8-0.5,1.2-0.7c1.2,1.2,2.4,2.4,3.7,3.7
		c-3.2,1.8-6.3,3.5-9.5,5.3c-4.3,2.4-8.5,4.7-12.8,7.1c-0.4,0.2-1.1,0.8-1,1c0.1,0.4,0.6,0.9,1,1.1C64.6,69.1,71.2,72.7,77.9,76.2z"
		/>
</g>
</svg>
