<?xml version="1.0" encoding="utf-8"?>
<!-- Generator: Adobe Illustrator 27.4.0, SVG Export Plug-In . SVG Version: 6.00 Build 0)  -->
<svg version="1.1" id="图层_1" xmlns="http://www.w3.org/2000/svg" xmlns:xlink="http://www.w3.org/1999/xlink" x="0px" y="0px"
	 viewBox="0 0 128 128" style="enable-background:new 0 0 128 128;" xml:space="preserve">
<style type="text/css">
	.st0{fill:#FFFFFF;}
</style>
<g>
	<path class="st0" d="M74.5,88c14.9-14.5,13.2-34.8,1.1-47.2c-10.9-11.1-29.8-12.4-42.1-2.5c-13.3,10.5-16.3,29-7.1,43.2
		C30.8,88.4,37,93.1,45,95.1c9.7,2.4,18.7,0.7,26.9-5c3,2.1,5.9,4.2,8.9,6.3c0.7-0.8,1.3-1.5,1.9-2.2C80,92.1,77.3,90.1,74.5,88z
		 M107,94.4c0-20.7,0-41.3,0-62.1c-1.1,0.3-2,0.6-3,0.9c0,20.7,0,41.3,0,62C105,94.9,106,94.7,107,94.4z"/>
	<path class="st0" d="M74.5,88c2.8,2.1,5.5,4.1,8.3,6.1c-0.7,0.8-1.3,1.5-1.9,2.2c-3-2.1-5.9-4.2-8.9-6.3c-8.3,5.6-17.2,7.4-26.9,5
		c-8-2-14.2-6.7-18.7-13.6c-9.2-14.2-6.1-32.7,7.1-43.2c12.4-9.8,31.2-8.6,42.1,2.5C87.7,53.2,89.3,73.5,74.5,88z M53.1,34.5
		c-16.3,0-28.8,12.8-28.8,29.4c0,16.4,12.7,29.3,28.8,29.3c16.3,0,29.1-13.5,28.8-30C81.6,47.5,69.1,34.3,53.1,34.5z"/>
	<path class="st0" d="M107,94.4c-1,0.3-2,0.5-3,0.8c0-20.7,0-41.3,0-62c0.9-0.3,1.9-0.5,3-0.9C107,53.2,107,73.8,107,94.4z"/>
	<path class="st0" d="M53.1,34.5c15.9-0.2,28.5,13,28.8,28.6c0.3,16.5-12.5,30.1-28.8,30c-16.1,0-28.8-12.9-28.8-29.3
		C24.3,47.3,36.8,34.5,53.1,34.5z M56.1,90.4c0-0.6,0-1,0-1.5c-0.1-6.6-0.2-13.2-0.3-19.8c0-1.4,0.2-1.5,1.5-0.8
		c3.8,2.2,7.7,4.5,11.5,6.8c2.3,1.4,4.6,2.7,7,4.1c0.4-1.5,0.7-2.9,1.1-4.3c-0.4-0.2-0.6-0.4-0.9-0.5c-5.7-3.1-11.4-6.1-17.1-9.2
		c-0.4-0.2-0.8-0.6-0.9-1c-0.1-0.2,0.5-0.7,0.9-0.9c3.7-2,7.3-4.1,11-6.1c2.7-1.5,5.4-3,8.2-4.5c-1.1-1.1-2.1-2.1-3.2-3.2
		c-0.4,0.2-0.7,0.4-1.1,0.6c-5.5,3.3-11,6.6-16.5,9.9c-0.4,0.2-0.8,0.3-1.2,0.4c-0.1-0.4-0.3-0.8-0.3-1.2c0.1-5.5,0.1-11,0.2-16.5
		c0-1.7,0-3.4,0-5.2c-1.2,0.3-2.2,0.7-3.3,0.9c-1,0.2-1.3,0.7-1.3,1.7c0.2,6.4,0.2,12.9,0.3,19.3c0,1.3-0.3,1.5-1.4,0.8
		c-2.3-1.4-4.6-2.7-6.8-4.1c-3.9-2.4-7.9-4.7-12-7.1c-0.5,1.4-0.9,2.7-1.4,4.1c0.4,0.3,0.8,0.5,1.2,0.7c5.6,3.2,11.2,6.4,16.8,9.6
		c0.4,0.2,0.7,0.6,1,0.9c-0.3,0.3-0.6,0.8-1.1,1c-5.9,3.3-11.7,6.6-17.6,9.9c-0.3,0.2-0.7,0.4-1.1,0.6c1,1.2,2,2.3,2.9,3.3
		c6.1-3.6,12-7.2,18-10.7c0.4-0.2,0.8-0.3,1.2-0.4c0.1,0.4,0.3,0.8,0.3,1.2c-0.1,6.6-0.1,13.2-0.2,19.8c0,0.7,0,1.4,0,2.2
		C53.1,91,54.5,90.7,56.1,90.4z"/>
	<path class="st0" d="M56.1,90.4c-1.6,0.3-3,0.5-4.6,0.8c0-0.8,0-1.5,0-2.2c0.1-6.6,0.2-13.2,0.2-19.8c0-0.4-0.2-0.8-0.3-1.2
		c-0.4,0.1-0.9,0.2-1.2,0.4c-6,3.6-11.9,7.1-18,10.7c-0.9-1.1-1.9-2.1-2.9-3.3c0.4-0.2,0.7-0.5,1.1-0.6c5.9-3.3,11.8-6.6,17.6-9.9
		c0.4-0.2,0.7-0.7,1.1-1c-0.3-0.3-0.6-0.7-1-0.9c-5.6-3.2-11.2-6.4-16.8-9.6c-0.4-0.2-0.8-0.4-1.2-0.7c0.5-1.4,0.9-2.7,1.4-4.1
		c4.1,2.4,8,4.8,12,7.1c2.3,1.4,4.6,2.7,6.8,4.1c1.1,0.7,1.4,0.5,1.4-0.8c-0.1-6.4-0.2-12.9-0.3-19.3c0-1,0.2-1.5,1.3-1.7
		c1.1-0.2,2.2-0.6,3.3-0.9c0,1.8,0,3.5,0,5.2c-0.1,5.5-0.2,11-0.2,16.5c0,0.4,0.2,0.8,0.3,1.2c0.4-0.1,0.9-0.2,1.2-0.4
		c5.5-3.3,11-6.6,16.5-9.9c0.3-0.2,0.7-0.4,1.1-0.6c1.1,1.1,2.1,2.1,3.2,3.2c-2.7,1.5-5.5,3-8.2,4.5c-3.7,2-7.3,4-11,6.1
		c-0.4,0.2-0.9,0.7-0.9,0.9c0.1,0.4,0.5,0.8,0.9,1c5.7,3.1,11.4,6.1,17.1,9.2c0.3,0.2,0.6,0.3,0.9,0.5c-0.4,1.4-0.7,2.8-1.1,4.3
		c-2.4-1.4-4.7-2.7-7-4.1c-3.8-2.3-7.7-4.5-11.5-6.8c-1.2-0.7-1.5-0.6-1.5,0.8c0.1,6.6,0.2,13.2,0.3,19.8
		C56.1,89.4,56.1,89.9,56.1,90.4z"/>
</g>
</svg>
